# xmcd
#
# Track frame offsets:
#	150
#	20431
#	37451
#	51697
#	59474
#	70418
#	91015
#	102177
#	119432
#	139875
#	151620
#	167702
#	186363
#	204887
#	215386
#	233725
#	245493
#	254964
#	266471
#	292050
#	306748
#	320829
#	336653
#
# Disc length: 4634 seconds
#
# Revision: 1
# Processed by: cddbd v1.5.2PL0 Copyright (c) Steve Scherf et al.
# Submitted via: audiograbber 1.83.01
#
DISCID=76121817
DTITLE=BRUNNING SUNFLOWER BLUES BAND - Brunning/Hall - Bullen St.Blues
DYEAR=1900
DGENRE=Blues
TTITLE0=Call Me
TTITLE1=Gotta Keep Running
TTITLE2=Put A Record On
TTITLE3=Once Upon A Time
TTITLE4=Be Satisfied
TTITLE5=Dirty Old Blues
TTITLE6=Bagey Man
TTITLE7=Feel So Bad
TTITLE8=Rolling Down The Highway
TTITLE9=Waiting For You
TTITLE10=Too Poor To Die
TTITLE11=What Does It All Mean
TTITLE12=Gone Back Home
TTITLE13=Hit The Wine
TTITLE14=Bullen Street Blues
TTITLE15=No Idea
TTITLE16=Shout Your Name And Call It
TTITLE17=Take Your Hands Of Me
TTITLE18=Fore Time Began
TTITLE19=Something Tells Me
TTITLE20=Big Belly Blues
TTITLE21=Sunflower Boogie
TTITLE22=Rockin' Chair
EXTD=
EXTT0=
EXTT1=
EXTT2=
EXTT3=
EXTT4=
EXTT5=
EXTT6=
EXTT7=
EXTT8=
EXTT9=
EXTT10=
EXTT11=
EXTT12=
EXTT13=
EXTT14=
EXTT15=
EXTT16=
EXTT17=
EXTT18=
EXTT19=
EXTT20=
EXTT21=
EXTT22=
PLAYORDER=
